<svg width="64" height="64" viewBox="0 0 64 64" fill="none" xmlns="http://www.w3.org/2000/svg">
  <defs>
    <linearGradient id="primary-gradient" x1="0%" y1="0%" x2="100%" y2="100%">
      <stop offset="0%" stop-color="#667eea"/>
      <stop offset="50%" stop-color="#764ba2"/>
      <stop offset="100%" stop-color="#f093fb"/>
    </linearGradient>
    <linearGradient id="accent-gradient" x1="0%" y1="0%" x2="100%" y2="100%">
      <stop offset="0%" stop-color="#ffecd2"/>
      <stop offset="50%" stop-color="#fcb69f"/>
      <stop offset="100%" stop-color="#ff9a9e"/>
    </linearGradient>
    <linearGradient id="gold-gradient" x1="0%" y1="0%" x2="100%" y2="100%">
      <stop offset="0%" stop-color="#ffd89b"/>
      <stop offset="50%" stop-color="#19547b"/>
      <stop offset="100%" stop-color="#ffd89b"/>
    </linearGradient>
    <filter id="glow">
      <feGaussianBlur stdDeviation="2" result="coloredBlur"/>
      <feMerge> 
        <feMergeNode in="coloredBlur"/>
        <feMergeNode in="SourceGraphic"/>
      </feMerge>
    </filter>
    <filter id="shadow">
      <feDropShadow dx="0" dy="2" stdDeviation="3" flood-color="#000000" flood-opacity="0.3"/>
    </filter>
  </defs>
  
  <!-- Main Background Circle with Gradient -->
  <circle cx="32" cy="32" r="30" fill="url(#primary-gradient)" filter="url(#glow)"/>
  
  <!-- Abstract Infinity Symbol (Trust & Continuity) -->
  <path d="M16 32 C16 24 22 20 28 20 C34 20 40 24 40 32 C40 40 34 44 28 44 C22 44 16 40 16 32 Z M48 32 C48 24 42 20 36 20 C30 20 24 24 24 32 C24 40 30 44 36 44 C42 44 48 40 48 32 Z" 
        fill="url(#accent-gradient)" 
        opacity="0.9"
        filter="url(#shadow)"/>
  
  <!-- Dynamic Growth Spiral -->
  <path d="M32 32 Q36 28 40 32 Q44 36 40 40 Q36 44 32 40 Q28 36 32 32" 
        fill="none" 
        stroke="url(#gold-gradient)" 
        stroke-width="3" 
        stroke-linecap="round"
        opacity="0.8"/>
  
  <!-- Floating Trust Elements -->
  <circle cx="20" cy="20" r="3" fill="url(#accent-gradient)" opacity="0.7"/>
  <circle cx="44" cy="20" r="3" fill="url(#accent-gradient)" opacity="0.7"/>
  <circle cx="20" cy="44" r="3" fill="url(#accent-gradient)" opacity="0.7"/>
  <circle cx="44" cy="44" r="3" fill="url(#accent-gradient)" opacity="0.7"/>
  
  <!-- Center Diamond (Finance & Value) -->
  <path d="M32 24 L36 32 L32 40 L28 32 Z" 
        fill="url(#gold-gradient)" 
        opacity="0.9"
        filter="url(#shadow)"/>
  
  <!-- Abstract Connection Lines -->
  <path d="M24 24 L40 40" stroke="url(#accent-gradient)" stroke-width="1.5" opacity="0.4"/>
  <path d="M40 24 L24 40" stroke="url(#accent-gradient)" stroke-width="1.5" opacity="0.4"/>
  
  <!-- Dynamic Arrows (Growth Direction) -->
  <path d="M28 48 L32 44 L36 48" stroke="url(#gold-gradient)" stroke-width="2" stroke-linecap="round" stroke-linejoin="round" fill="none"/>
  <path d="M28 16 L32 20 L36 16" stroke="url(#gold-gradient)" stroke-width="2" stroke-linecap="round" stroke-linejoin="round" fill="none"/>
  
  <!-- Sparkle Elements -->
  <path d="M16 16 L18 18 M18 16 L16 18" stroke="url(#accent-gradient)" stroke-width="1.5" stroke-linecap="round"/>
  <path d="M48 16 L50 18 M50 16 L48 18" stroke="url(#accent-gradient)" stroke-width="1.5" stroke-linecap="round"/>
  <path d="M16 48 L18 50 M18 48 L16 50" stroke="url(#accent-gradient)" stroke-width="1.5" stroke-linecap="round"/>
  <path d="M48 48 L50 50 M50 48 L48 50" stroke="url(#accent-gradient)" stroke-width="1.5" stroke-linecap="round"/>
  
  <!-- Center Glow -->
  <circle cx="32" cy="32" r="4" fill="#ffffff" opacity="0.8"/>
</svg> 