<svg width="64" height="64" viewBox="0 0 64 64" fill="none" xmlns="http://www.w3.org/2000/svg">
  <defs>
    <linearGradient id="primary-gradient" x1="0%" y1="0%" x2="100%" y2="100%">
      <stop offset="0%" stop-color="#3b82f6"/>
      <stop offset="50%" stop-color="#1d4ed8"/>
      <stop offset="100%" stop-color="#1e40af"/>
    </linearGradient>
    <linearGradient id="accent-gradient" x1="0%" y1="0%" x2="100%" y2="100%">
      <stop offset="0%" stop-color="#06b6d4"/>
      <stop offset="100%" stop-color="#0891b2"/>
    </linearGradient>
    <filter id="glow">
      <feGaussianBlur stdDeviation="2" result="coloredBlur"/>
      <feMerge> 
        <feMergeNode in="coloredBlur"/>
        <feMergeNode in="SourceGraphic"/>
      </feMerge>
    </filter>
  </defs>
  
  <!-- Main Hexagon Background -->
  <path d="M32 4 L52 18 L52 46 L32 60 L12 46 L12 18 Z" 
        fill="url(#primary-gradient)" 
        stroke="#ffffff" 
        stroke-width="1.5"
        filter="url(#glow)"/>
  
  <!-- Inner Hexagon Accent -->
  <path d="M32 12 L48 22 L48 42 L32 52 L16 42 L16 22 Z" 
        fill="none" 
        stroke="url(#accent-gradient)" 
        stroke-width="2" 
        opacity="0.8"/>
  
  <!-- Abstract Trust Symbol -->
  <path d="M24 32 L32 24 L40 32 L32 40 Z" 
        fill="url(#accent-gradient)" 
        opacity="0.9"/>
  
  <!-- Center Dot -->
  <circle cx="32" cy="32" r="3" fill="#ffffff"/>
  
  <!-- Geometric Lines -->
  <path d="M20 20 L44 44" stroke="#ffffff" stroke-width="1" opacity="0.4"/>
  <path d="M44 20 L20 44" stroke="#ffffff" stroke-width="1" opacity="0.4"/>
  
  <!-- Corner Accents -->
  <circle cx="16" cy="16" r="2" fill="url(#accent-gradient)" opacity="0.6"/>
  <circle cx="48" cy="16" r="2" fill="url(#accent-gradient)" opacity="0.6"/>
  <circle cx="16" cy="48" r="2" fill="url(#accent-gradient)" opacity="0.6"/>
  <circle cx="48" cy="48" r="2" fill="url(#accent-gradient)" opacity="0.6"/>
  
  <!-- Trust Arrow -->
  <path d="M28 52 L32 48 L36 52" 
        stroke="#ffffff" 
        stroke-width="2" 
        stroke-linecap="round" 
        stroke-linejoin="round" 
        fill="none"/>
</svg> 